<?xml version="1.0" encoding="utf-8"?>
<!-- Generator: Adobe Illustrator 21.0.2, SVG Export Plug-In . SVG Version: 6.00 Build 0)  -->
<svg version="1.1" id="Layer_1" xmlns="http://www.w3.org/2000/svg" xmlns:xlink="http://www.w3.org/1999/xlink" x="0px" y="0px"
	 viewBox="0 0 118.3 186.3" style="enable-background:new 0 0 118.3 186.3;" xml:space="preserve">
<style type="text/css">
	.st0{fill:#75BCB9;}
	.st1{fill:#F9FCFB;}
	.st2{fill:#D1E5DA;}
	.st3{fill:#6C8298;}
	.st4{fill:#79B8D6;}
	.st5{fill:#758B9F;}
</style>
<g>
	<path class="st0" d="M111.2,93.7c0,21.3,0.1,42.7,0,64c0,9.1-3.3,16.4-11.9,20.8c-3.2,1.6-6.4,2.7-10,2.7c-20.2,0-40.3,0-60.5,0
		c-11.3,0-21.6-9.9-21.6-21.3c-0.1-43.2-0.1-86.3,0-129.5C7.3,15.2,17.8,5.2,33,5.2c17.5,0,35,0,52.5,0c16.1,0,25.7,9.8,25.7,26
		C111.2,52,111.2,72.8,111.2,93.7z M106.4,93.8c0-20.8,0-41.7,0-62.5c0-14-7.3-21.3-21.1-21.3c-17.5,0-35,0-52.5,0
		c-13.3,0-20.8,7.3-20.8,20.6c-0.1,42,0,84,0,126c0,12.8,7.8,20.5,20.6,20.5c17.7,0,35.3,0,53,0c12.9,0,20.8-7.9,20.8-20.8
		C106.4,135.5,106.4,114.6,106.4,93.8z"/>
	<path class="st1" d="M106.4,93.8c0,20.8,0,41.7,0,62.5c0,12.9-7.9,20.8-20.8,20.8c-17.7,0-35.3,0-53,0c-12.9,0-20.6-7.7-20.6-20.5
		c-0.1-42-0.1-84,0-126c0-13.3,7.5-20.6,20.8-20.6c17.5,0,35,0,52.5,0c13.9,0,21.1,7.3,21.1,21.3C106.4,52.2,106.4,73,106.4,93.8z
		 M17.2,93.3c0,19.3,0.1,38.6-0.1,57.9c0,4.4,0.9,6,5.7,5.9c23.1-0.3,46.1-0.1,69.2-0.1c1.8,0,3.6-0.4,5.4-0.5
		c2.8-0.2,3.8-1.6,3.8-4.5c-0.1-39.1-0.1-78.2,0-117.4c0-3.4-0.9-4.6-4.5-4.6c-25,0.1-49.9,0.1-74.9,0c-3.8,0-4.8,1.2-4.7,4.9
		C17.3,54.4,17.2,73.8,17.2,93.3z M59.1,160c-4.4,0-8,3.5-7.9,7.7c0.1,4.3,3.7,7.7,8.1,7.6c4.5-0.1,8-3.5,7.9-7.8
		C67.1,163.3,63.5,159.9,59.1,160z M59.6,21C59.6,21,59.6,21,59.6,21c-3.3,0-6.7,0-10,0c-1.3,0-2.4,0.5-2.3,2c0.1,1.2,1,1.8,2,1.9
		c6.5,0.1,13,0.1,19.5,0c1.2,0,2.3-0.6,2.2-2.1C71,21.2,69.7,21,68.6,21C65.6,20.9,62.6,21,59.6,21z"/>
	<path class="st2" d="M17.2,93.3c0-19.5,0.1-39-0.1-58.4c0-3.7,0.9-4.9,4.7-4.9c25,0.2,49.9,0.1,74.9,0c3.6,0,4.5,1.2,4.5,4.6
		c-0.1,39.1-0.1,78.2,0,117.4c0,3-1,4.3-3.8,4.5c-1.8,0.1-3.6,0.5-5.4,0.5c-23.1,0-46.2-0.1-69.2,0.1c-4.8,0.1-5.8-1.5-5.7-5.9
		C17.3,131.9,17.2,112.6,17.2,93.3z M59,150c9.8,0,19.6,0,29.4,0c6.6,0,6.7-0.1,6.6-7.8c0-6.9-0.1-7.1-6.9-7.1c-18,0-35.9,0-53.9,0
		c-10.3,0-10.2,0-10.2,10.3c0,3.9,1.5,4.7,5,4.6C39,149.9,49,150.1,59,150z M59.3,36c-11.1,0-22.3,0.2-33.4-0.1
		c-4-0.1-4.8,1.5-4.6,5c0.2,3.3-0.4,6.2,4.7,6.2c22.1-0.2,44.2-0.2,66.4,0c4.9,0,4.7-2.9,4.9-6.2c0.2-3.6-1.1-5-4.9-5
		C81.2,36.1,70.3,36,59.3,36z M55.2,65.3c-9.5,0-19,0-28.5,0c-1.8,0-4.4-0.9-4.3,2.5c0.1,3,2.4,2.2,4.1,2.2c19,0,38,0,57,0
		c1.8,0,3.9,0.3,4.1-2.4c0.2-3-2.2-2.4-3.9-2.4C74.2,65.2,64.7,65.3,55.2,65.3z M50.2,57.2c-8,0-16,0-24,0c-1.5,0-3.7-0.6-3.6,2.1
		c0,2.3,1.9,1.9,3.3,1.9c16.3,0,32.6,0,48.9,0c1.4,0,3.3,0.5,3.4-1.8c0.1-2.7-2-2.2-3.5-2.2C66.5,57.1,58.3,57.2,50.2,57.2z
		 M41.2,78.1c5,0,10,0,15,0c1.5,0,3.1,0.1,3-2.2c-0.1-2-1.6-1.8-2.9-1.8c-10,0-20,0-30,0c-1.4,0-3.2-0.4-3.3,2c0,2.3,1.8,2,3.2,2
		C31.2,78.1,36.2,78.1,41.2,78.1z"/>
	<path class="st0" d="M59.1,160c4.4,0,8,3.4,8.1,7.6c0,4.3-3.5,7.7-7.9,7.8c-4.4,0.1-8-3.4-8.1-7.6C51.1,163.5,54.7,160,59.1,160z"
		/>
	<path class="st3" d="M59.6,21c3,0,6,0,9,0c1.2,0,2.4,0.2,2.5,1.8c0.1,1.5-1,2.1-2.2,2.1c-6.5,0.1-13,0.1-19.5,0c-1,0-1.9-0.7-2-1.9
		c-0.1-1.5,1-2,2.3-2C52.9,21,56.2,21,59.6,21C59.6,21,59.6,21,59.6,21z"/>
	<path class="st4" d="M59,150.1c-10,0-20-0.1-29.9,0.1c-3.5,0.1-5-0.7-5-4.6c0-10.3-0.1-10.3,10.2-10.3c18,0,35.9,0,53.9,0
		c6.8,0,6.9,0.2,6.9,7.1c0,7.8,0,7.8-6.6,7.8C78.6,150.1,68.8,150,59,150.1z"/>
	<path class="st4" d="M59.3,36c11,0,22,0.1,32.9-0.1c3.8-0.1,5.1,1.3,4.9,5c-0.2,3.3,0,6.2-4.9,6.2c-22.1-0.2-44.2-0.2-66.4,0
		c-5,0-4.5-2.9-4.7-6.2c-0.2-3.5,0.7-5.1,4.6-5C37,36.2,48.1,36,59.3,36z"/>
	<path class="st5" d="M55.2,65.3c9.5,0,19,0,28.5,0c1.7,0,4-0.6,3.9,2.4c-0.1,2.7-2.2,2.4-4.1,2.4c-19,0-38,0-57,0
		c-1.7,0-4,0.8-4.1-2.2c-0.1-3.4,2.5-2.5,4.3-2.5C36.2,65.2,45.7,65.3,55.2,65.3z"/>
	<path class="st3" d="M50.2,57.2c8.2,0,16.3,0,24.5,0c1.5,0,3.7-0.5,3.5,2.2c-0.1,2.3-2,1.8-3.4,1.8c-16.3,0-32.6,0-48.9,0
		c-1.4,0-3.3,0.3-3.3-1.9c0-2.7,2.1-2.1,3.6-2.1C34.2,57.1,42.2,57.2,50.2,57.2z"/>
	<path class="st3" d="M41.2,78.1c-5,0-10,0-15,0c-1.4,0-3.2,0.3-3.2-2c0-2.3,1.9-2,3.3-2c10,0,20,0,30,0c1.3,0,2.8-0.2,2.9,1.8
		c0.1,2.3-1.4,2.2-3,2.2C51.2,78.1,46.2,78.1,41.2,78.1z"/>
</g>
</svg>
